<svg xmlns="http://www.w3.org/2000/svg" role="img" viewBox="0 0 24 24">
<title>Adobe Lightroom Icon</title>
<path fill="currentColor" d="M5.3,18L5.3,18l6.8,0c0.1,0,0.2,0,0.2-0.1l0.3-1.8c0-0.1,0-0.2-0.1-0.2H7.3V4.4c0-0.1,0-0.1-0.1-0.1h-2
  c-0.1,0-0.1,0.1-0.1,0.2v13.4C5.1,17.9,5.1,18,5.3,18z"/>
<path fill="currentColor" d="M19.3,7.7c-2,0-3.8,0.6-4.6,0.9c-0.1,0-0.1,0.1-0.1,0.2c0.1,0.7,0.1,1.1,0.1,1.2h0v7.9c0,0.1,0,0.1,0.1,0.1h2
  c0.1,0,0.1,0,0.1-0.1V10c0.4-0.2,1.6-0.3,2.4-0.3c0.1,0,0.1,0,0.1-0.1V7.8C19.4,7.7,19.4,7.7,19.3,7.7z"/>
</svg>