
<svg xmlns="http://www.w3.org/2000/svg" role="img" viewBox="0 0 24 24">
<title>Adobe Illustrator Icon</title>
	<path fill="currentColor" d="M12.5,18c0,0.1,0.1,0.1,0.2,0.1h2.1c0.1,0,0.1-0.1,0.1-0.2l-4-13.5c0-0.1-0.1-0.1-0.1-0.1H8.1C8.1,4.3,8,4.3,8,4.4
		c0,0.6-0.1,0.8-0.1,1L4.3,17.9c0,0.1,0,0.2,0.1,0.2h1.8c0.1,0,0.2,0,0.2-0.1l1-3.7l0,0h4L12.5,18z M8,12.2c0.5-1.9,1.2-4.4,1.4-5.9
		h0c0.3,1.5,1.1,4.5,1.5,5.9H8z"/>
	<path fill="currentColor" d="M16.9,18.1h1.9c0.1,0,0.1,0,0.1-0.1V8.1c0-0.1,0-0.1-0.1-0.1h-2c-0.1,0-0.1,0-0.1,0.1l0,0v9.9C16.7,18,16.8,18.1,16.9,18.1
		z"/>
	<path fill="currentColor" d="M17.9,3.9c-0.7,0-1.3,0.5-1.3,1.3h0c0,0.8,0.5,1.3,1.3,1.3c0.8,0,1.3-0.5,1.3-1.3C19.1,4.4,18.6,3.9,17.9,3.9z"/>
</svg>