<svg xmlns="http://www.w3.org/2000/svg" role="img" viewBox="0 0 24 24">
<title>Adobe Premiere icon</title>
<path fill="currentColor" d="M6.9,18C7,18,7,18,7,17.9v-4.8c0.3,0,0.5,0,1,0c2.8,0,5.1-1.4,5.1-4.5c0-2.4-1.5-4.3-5-4.3c-1.2,0-2.4,0-3.2,0.1
  c-0.1,0-0.1,0.1-0.1,0.1v13.4c0,0.1,0,0.1,0.1,0.1H6.9z M7,6.3c0.2,0,0.7,0,1.2,0c1.7,0,2.6,0.8,2.6,2.4c0,2-1.4,2.5-2.8,2.5
  c-0.5,0-0.7,0-1,0V6.3z"/>
<path fill="currentColor" d="M15.2,18h2c0.1,0,0.1,0,0.1-0.1V10c0.8-0.2,1.6-0.3,2.4-0.2c0.1,0,0.1,0,0.1-0.1V7.8c0-0.1,0-0.1-0.1-0.1
  c-1.6,0-3.1,0.3-4.6,0.9C15,8.6,15,8.6,15,8.7C15,9.4,15,9.8,15,9.9v7.9C15,18,15.1,18,15.2,18z"/>
</svg>