<svg class="inline-svg" version="1.1" xmlns="http://www.w3.org/2000/svg" xmlns:xlink="http://www.w3.org/1999/xlink" viewBox="0 0 512 512" xml:space="preserve">
	<title>
		DataUnlocker Logo
	</title>
	<path fill="currentColor" d="M471.4,72.6C444.9,43.8,408.5,28,369,28c-29.6,0-56.6,9.3-80.4,27.8c-12,9.3-22.9,20.7-32.5,34c-9.6-13.3-20.5-24.7-32.5-34 C199.6,37.3,172.6,28,143,28c-39.5,0-75.9,15.8-102.4,44.6C14.4,101,0,139.8,0,181.9c0,43.3,16.1,82.9,50.8,124.7 c14.3,17.2,31.5,34.6,50.9,52.6c18.1,16.8,38.2,34.2,59.7,52.6c5.4,4.7,11,9.4,16.6,14.2c2.1,1.8,4.3,3.7,6.5,5.5 c16,13.6,33.6,28.7,51.8,44.6c2.4,2.1,5,3.7,7.8,5c3.7,1.6,7.8,2.5,12,2.5c3.8,0,7.6-0.7,11.1-2.1c3.1-1.3,6.1-3,8.7-5.3 c17.9-15.7,35.2-30.5,51-43.9c2.5-2.1,4.9-4.2,7.3-6.2c5.3-4.5,10.6-9,15.7-13.4c21.5-18.4,41.5-35.7,59.7-52.5 c19.7-18.3,37.2-35.9,51.7-53.4c34.6-41.8,50.8-81.4,50.8-124.7C512,139.8,497.6,101,471.4,72.6z M161.3,333v46.7 c-21.5-18.4-41.6-35.8-59.7-52.6v-3.5c9.8-0.7,18.9-4.8,26-11.8l33.6-33.6V333z M244,375.9v7.7v52.3v2.5V449c-2.8-1.2-5.5-2.9-7.8-5 c-18.2-15.9-35.9-31-51.8-44.6v-7.2v-8.7v-51.3v-54.8l31.8,31.8c7.4,7.4,17.3,11.6,27.9,11.8V375.9z M326.8,311v60v12.7v16.6 c-15.8,13.4-33.1,28.3-51,43.9c-2.6,2.3-5.5,4-8.7,5.3v-11v-9.1v-45.7v-14.3v-54.8c2.4-1.5,4.6-3.3,6.6-5.3l53.1-53.1V311z M409.5,236.8v60V328c-18.1,16.8-38.2,34.1-59.7,52.5v-32.7v-60V233l55.2-55.2l1,1c0.8,0.8,2,1.9,3.5,3.2V236.8z M446,90.3l-1,21 c-0.7,14-1.4,28-2,42c-0.2,3.3-0.8,7.4-4,10.7c-0.9,0.9-2,1.7-3.2,2.4c-1.8,1-3.6,1.4-5.3,1.4c-4.2,0-6.9-2.7-8.9-4.7L405,146.5 l-147,147c-3.6,3.5-8.2,5.5-13.2,5.5c-5,0-9.7-2-13.2-5.5L173.1,235l-61.3,61.3c-3.5,3.5-8.1,5.5-13.1,5.5c-5,0-9.7-2-13.2-5.5 l-3.5-3.5c-7.3-7.3-7.3-19.1,0-26.3l78-77.9c3.5-3.5,8.1-5.5,13.1-5.5s9.7,2,13.2,5.5l58.5,58.5l130.3-130.3 c-3.8-3.7-7.6-7.5-11.3-11.3l-5.4-5.5c-2.1-2.1-6.6-6.6-3.4-13.5c0.6-1.4,1.4-2.5,2.4-3.5c3.1-3.1,7.1-3.3,9.9-3.4 c21.6-1,43-2,64.6-3c0.4,0,0.8,0,1.2,0c4.3,0,7.6,1.2,9.8,3.6C445.3,82.5,446.3,85.9,446,90.3z" />
</svg>
