<svg version="1.1" xmlns="http://www.w3.org/2000/svg" xmlns:xlink="http://www.w3.org/1999/xlink" viewBox="0 0 200 200">
	<g>
		<path fill="currentColor" d="M100,8c50.7,0,92,41.3,92,92s-41.3,92-92,92S8,150.7,8,100S49.3,8,100,8 M100,0C44.8,0,0,44.8,0,100
		s44.8,100,100,100s100-44.8,100-100S155.2,0,100,0L100,0z" />
	</g>
	<path fill="currentColor" d="M152.7,132l-17.1-35c-0.8-1.7-3.2-1.7-4,0l-5.7,11.7c-0.6,1.3-0.6,2.8,0,4.1l10.8,22c0.6,1.1-0.3,2.5-1.5,2.5
	h-31.5l34.6-70.6c0.7-1.5,0.1-3.2-1.3-3.9c-1.5-0.7-3.2-0.1-3.9,1.3l-6.7,13.7l-19.1-39c-2.9-5.9-11.3-5.9-14.2,0L47.3,132
	c-2.6,5.2,1.2,11.4,7.1,11.4h29c1.7,0,3-1.4,3-3v0c0-1.7-1.4-3-3-3H54c-1.3,0-2.1-1.3-1.5-2.5L93,52.1c0.6-1.3,2.4-1.3,3.1,0
	l21.4,43.7l-30.2,61.5c-0.7,1.5-0.1,3.2,1.3,3.9c0.4,0.2,0.9,0.3,1.3,0.3c1.1,0,2.1-0.6,2.6-1.6l8.1-16.5h45
	C151.5,143.4,155.3,137.3,152.7,132z" />
</svg>
