<svg xmlns="http://www.w3.org/2000/svg" role="img" viewBox="0 0 48 48">
<title>FL Studio Icon</title>
<path fill="currentColor" d="M33,9.2c-1.4,0-2.4,0.2-3.2,0.3c1.1-1.9,3-4.5,4.9-5.7c0.5-0.3,0.6-0.9,0.3-1.4C34.7,2,34,1.9,33.6,2.2
	c-2.2,1.5-4.4,4.5-5.7,6.6C26.5,6.2,25,5,21.2,5C13.5,5,11,10.7,11,12.3c0,0.6,1.1,1.1,3.7,1.1c0.2,0,0.4,0,0.6,0
	c-1.9,3.1-4.3,8.6-4.3,16C11,39.6,15,44,18.7,44c1.7,0,7.3-1.2,12.8-10.5c2.9-4.9,4.3-8.6,5-11.2c0.8,0.6,1.5,1,2,1
	c1.7,0,2.6-2.5,2.6-5.8C41,14.9,39,9.2,33,9.2z"/>
</svg>
