<svg xmlns="http://www.w3.org/2000/svg" width="24" height="24" viewBox="0 0 24 24">
<path fill="currentColor" opacity="0.5" d="M22.1,13.2L21,9.7H2.9l0,0l-1.1,3.5c-0.1,0.3,0,0.7,0.3,0.9l9.9,7.2l0,0l0,0l0,0l0,0l9.9-7.2 C22.1,13.9,22.2,13.5,22.1,13.2z"/>
<path fill="currentColor" opacity="0.65" d="M12,21.3l9.1-11.5H2.9l0,0L12,21.3z"/>
<path fill="currentColor" opacity="0.9" d="M2.9,9.7h5.3l0,0L6,2.8c-0.1-0.4-0.7-0.4-0.8,0L2.9,9.7z"/>
<path fill="currentColor" opacity="0.9" d="M21.1,9.7h-5.3l0,0l2.3-7c0.1-0.4,0.7-0.4,0.8,0L21.1,9.7z"/>
<path fill="currentColor" d="M12,21.3L8.2,9.7h7.5L12,21.3z"/>
</svg>