<svg xmlns="http://www.w3.org/2000/svg" role="img" viewBox="0 0 24 24">
<title>JavaScript icon</title>
<path fill="currentColor" d="M22,18.3c-0.2-1.1-0.9-2-3-2.9c-0.7-0.3-1.6-0.6-1.8-1.1c-0.1-0.3-0.1-0.5,0-0.7c0.1-0.6,0.9-0.8,1.5-0.7
	c0.4,0.1,0.8,0.4,1,0.9c1-0.7,1-0.7,1.8-1.1c-0.3-0.4-0.4-0.6-0.6-0.8c-0.6-0.7-1.5-1.1-2.8-1l-0.7,0.1c-0.7,0.2-1.3,0.5-1.7,1
	c-1.1,1.3-0.8,3.5,0.6,4.5c1.4,1,3.4,1.2,3.6,2.2c0.2,1.2-0.9,1.5-2,1.4c-0.8-0.2-1.3-0.6-1.8-1.3l-1.8,1.1c0.2,0.5,0.4,0.7,0.8,1.1
	c1.7,1.8,6.1,1.7,6.9-1C21.9,19.8,22.2,19.2,22,18.3C22,18.2,22,18.3,22,18.3z"/>
<path fill="currentColor" d="M13.1,11h-2.2c0,1.9,0,3.9,0,5.8c0,1.2,0.1,2.4-0.1,2.7c-0.3,0.7-1.2,0.6-1.6,0.5c-0.4-0.2-0.6-0.5-0.8-0.9
	C8.2,19.1,8.2,19,8.1,19l-1.8,1.1c0.3,0.6,0.8,1.2,1.3,1.5c0.9,0.5,2,0.7,3.2,0.4c0.8-0.2,1.5-0.7,1.8-1.4c0.5-0.9,0.4-2.1,0.4-3.3
	C13.1,15.2,13,13.2,13.1,11C13,11.1,13.1,11,13.1,11z"/>
</svg>